# File exported by Houdini 18.0.532 (www.sidefx.com)
# 64 points
# 128 vertices
# 32 primitives
# Bounds: [-5, 0, -5] to [5, 10, 5]
g 
v 5 10 0
v 4.90392637 10 -0.975451589
v 4.61939764 10 -1.91341734
v 4.15734816 10 -2.7778511
v 3.53553391 10 -3.53553391
v 2.77785087 10 -4.15734816
v 1.9134171 10 -4.61939764
v 0.975451171 10 -4.90392637
v -2.18556949e-07 10 -5
v -0.975451589 10 -4.90392637
v -1.91341758 10 -4.61939764
v -2.77785182 10 -4.15734768
v -3.53553391 10 -3.53553391
v -4.15734816 10 -2.77785087
v -4.61939812 10 -1.91341639
v -4.90392637 10 -0.975451529
v -5 10 4.37113897e-07
v -4.90392637 10 0.975452423
v -4.61939764 10 1.9134171
v -4.15734768 10 2.77785158
v -3.53553319 10 3.53553438
v -2.77785015 10 4.15734863
v -1.91341567 10 4.61939859
v -0.975451946 10 4.90392637
v 5.9624405e-08 10 5
v 0.975452065 10 4.90392637
v 1.91341805 10 4.61939716
v 2.77785206 10 4.1573472
v 3.5355351 10 3.53553271
v 4.15734816 10 2.77785158
v 4.61939764 10 1.9134171
v 4.90392637 10 0.975451171
v 5 0 0
v 4.90392637 0 -0.975451589
v 4.61939764 0 -1.91341734
v 4.15734816 0 -2.7778511
v 3.53553391 0 -3.53553391
v 2.77785087 0 -4.15734816
v 1.9134171 0 -4.61939764
v 0.975451171 0 -4.90392637
v -2.18556949e-07 0 -5
v -0.975451589 0 -4.90392637
v -1.91341758 0 -4.61939764
v -2.77785182 0 -4.15734768
v -3.53553391 0 -3.53553391
v -4.15734816 0 -2.77785087
v -4.61939812 0 -1.91341639
v -4.90392637 0 -0.975451529
v -5 0 4.37113897e-07
v -4.90392637 0 0.975452423
v -4.61939764 0 1.9134171
v -4.15734768 0 2.77785158
v -3.53553319 0 3.53553438
v -2.77785015 0 4.15734863
v -1.91341567 0 4.61939859
v -0.975451946 0 4.90392637
v 5.9624405e-08 0 5
v 0.975452065 0 4.90392637
v 1.91341805 0 4.61939716
v 2.77785206 0 4.1573472
v 3.5355351 0 3.53553271
v 4.15734816 0 2.77785158
v 4.61939764 0 1.9134171
v 4.90392637 0 0.975451171
vt 0.75 1 0.5
vt 0.75 0 0.5
vt 0.78125 0 0.49999997
vt 0.78125 1 0.49999997
vt 0.8125 0 0.5
vt 0.8125 1 0.5
vt 0.84375 0 0.5
vt 0.84375 1 0.5
vt 0.875 0 0.49999997
vt 0.875 1 0.49999997
vt 0.90625 0 0.5
vt 0.90625 1 0.5
vt 0.9375 0 0.49999997
vt 0.9375 1 0.49999997
vt 0.96875 0 0.5
vt 0.96875 1 0.5
vt 1 0 0.5
vt 1 1 0.5
vt 0 1 0.5
vt 0 0 0.5
vt 0.0312500298 0 0.49999997
vt 0.0312500298 1 0.49999997
vt 0.0625000298 0 0.5
vt 0.0625000298 1 0.5
vt 0.0937500298 0 0.5
vt 0.0937500298 1 0.5
vt 0.125 0 0.49999997
vt 0.125 1 0.49999997
vt 0.15625003 0 0.5
vt 0.15625003 1 0.5
vt 0.18750003 0 0.5
vt 0.18750003 1 0.5
vt 0.21875 0 0.5
vt 0.21875 1 0.5
vt 0.25 0 0.5
vt 0.25 1 0.5
vt 0.28125003 0 0.5
vt 0.28125003 1 0.5
vt 0.3125 0 0.49999997
vt 0.3125 1 0.49999997
vt 0.34375 0 0.49999997
vt 0.34375 1 0.49999997
vt 0.37500003 0 0.5
vt 0.37500003 1 0.5
vt 0.40625006 0 0.5
vt 0.40625006 1 0.5
vt 0.43750006 0 0.5
vt 0.43750006 1 0.5
vt 0.46875 0 0.49999997
vt 0.46875 1 0.49999997
vt 0.5 0 0.5
vt 0.5 1 0.5
vt 0.53125 0 0.49999997
vt 0.53125 1 0.49999997
vt 0.5625 0 0.5
vt 0.5625 1 0.5
vt 0.59375006 0 0.5
vt 0.59375006 1 0.5
vt 0.62500006 0 0.49999997
vt 0.62500006 1 0.49999997
vt 0.65625 0 0.5
vt 0.65625 1 0.5
vt 0.6875 0 0.5
vt 0.6875 1 0.5
vt 0.71875 0 0.5
vt 0.71875 1 0.5
vn 0.99999994 0 -1.28685713e-07
vn 0.99999994 0 -1.28685713e-07
vn 0.980785191 -0 -0.195090368
vn 0.980785191 -0 -0.195090368
vn 0.980785191 -0 -0.195090368
vn 0.980785191 -0 -0.195090368
vn 0.923879504 -0 -0.382683396
vn 0.923879504 -0 -0.382683396
vn 0.923879504 -0 -0.382683396
vn 0.923879504 -0 -0.382683396
vn 0.831469595 -0 -0.555570304
vn 0.831469595 -0 -0.555570304
vn 0.831469595 -0 -0.555570304
vn 0.831469595 -0 -0.555570304
vn 0.70710665 -0 -0.707106769
vn 0.70710665 -0 -0.707106769
vn 0.70710665 -0 -0.707106769
vn 0.70710665 -0 -0.707106769
vn 0.555570185 -0 -0.831469655
vn 0.555570185 -0 -0.831469655
vn 0.555570185 -0 -0.831469655
vn 0.555570185 -0 -0.831469655
vn 0.382683396 -0 -0.923879504
vn 0.382683396 -0 -0.923879504
vn 0.382683396 -0 -0.923879504
vn 0.382683396 -0 -0.923879504
vn 0.195090339 -0 -0.980785191
vn 0.195090339 -0 -0.980785191
vn 0.195090339 -0 -0.980785191
vn 0.195090339 -0 -0.980785191
vn -1.52516407e-07 0 -0.99999994
vn -1.52516407e-07 0 -0.99999994
vn -1.52516407e-07 0 -0.99999994
vn -1.52516407e-07 0 -0.99999994
vn -0.195090339 0 -0.980785251
vn -0.195090339 0 -0.980785251
vn -0.195090339 0 -0.980785251
vn -0.195090339 0 -0.980785251
vn -0.382683456 0 -0.923879504
vn -0.382683456 0 -0.923879504
vn -0.382683456 0 -0.923879504
vn -0.382683456 0 -0.923879504
vn -0.555570424 0 -0.831469536
vn -0.555570424 0 -0.831469536
vn -0.555570424 0 -0.831469536
vn -0.555570424 0 -0.831469536
vn -0.707106888 0 -0.707106709
vn -0.707106888 0 -0.707106709
vn -0.707106888 0 -0.707106709
vn -0.707106888 0 -0.707106709
vn -0.831469595 0 -0.555570304
vn -0.831469595 0 -0.555570304
vn -0.831469595 0 -0.555570304
vn -0.831469595 0 -0.555570304
vn -0.923879504 0 -0.382683396
vn -0.923879504 0 -0.382683396
vn -0.923879504 0 -0.382683396
vn -0.923879504 0 -0.382683396
vn -0.98078537 0 -0.19509016
vn -0.98078537 0 -0.19509016
vn -0.98078537 0 -0.19509016
vn -0.98078537 0 -0.19509016
vn -0.99999994 0 1.52516407e-07
vn -0.99999994 0 1.52516407e-07
vn -0.99999994 0 1.52516407e-07
vn -0.99999994 0 1.52516407e-07
vn -0.980785191 0 0.195090488
vn -0.980785191 0 0.195090488
vn -0.980785191 0 0.195090488
vn -0.980785191 0 0.195090488
vn -0.923879504 0 0.382683575
vn -0.923879504 0 0.382683575
vn -0.923879504 0 0.382683575
vn -0.923879504 0 0.382683575
vn -0.831469417 0 0.555570245
vn -0.831469417 0 0.555570245
vn -0.831469417 0 0.555570245
vn -0.831469417 0 0.555570245
vn -0.70710665 0 0.707106769
vn -0.70710665 0 0.707106769
vn -0.70710665 0 0.707106769
vn -0.70710665 0 0.707106769
vn -0.555570066 0 0.831469655
vn -0.555570066 0 0.831469655
vn -0.555570066 0 0.831469655
vn -0.555570066 0 0.831469655
vn -0.382683128 0 0.923879564
vn -0.382683128 0 0.923879564
vn -0.382683128 0 0.923879564
vn -0.382683128 0 0.923879564
vn -0.195090234 0 0.98078537
vn -0.195090234 0 0.98078537
vn -0.195090234 0 0.98078537
vn -0.195090234 0 0.98078537
vn 0 0 0.99999994
vn 0 0 0.99999994
vn 0 0 0.99999994
vn 0 0 0.99999994
vn 0.195090458 0 0.980785191
vn 0.195090458 0 0.980785191
vn 0.195090458 0 0.980785191
vn 0.195090458 0 0.980785191
vn 0.382683605 0 0.923879504
vn 0.382683605 0 0.923879504
vn 0.382683605 0 0.923879504
vn 0.382683605 0 0.923879504
vn 0.555570424 0 0.831469417
vn 0.555570424 0 0.831469417
vn 0.555570424 0 0.831469417
vn 0.555570424 0 0.831469417
vn 0.707106888 0 0.707106709
vn 0.707106888 0 0.707106709
vn 0.707106888 0 0.707106709
vn 0.707106888 0 0.707106709
vn 0.831469595 0 0.555570304
vn 0.831469595 0 0.555570304
vn 0.831469595 0 0.555570304
vn 0.831469595 0 0.555570304
vn 0.923879504 0 0.382683396
vn 0.923879504 0 0.382683396
vn 0.923879504 0 0.382683396
vn 0.923879504 0 0.382683396
vn 0.98078537 0 0.195090204
vn 0.98078537 0 0.195090204
vn 0.98078537 0 0.195090204
vn 0.98078537 0 0.195090204
vn 0.99999994 0 -1.28685713e-07
vn 0.99999994 0 -1.28685713e-07
g 
usemtl /obj/tube_object1/uvquickshade1/shop_definition/texture_material
f 1/1/1 33/2/2 34/3/3 2/4/4
f 2/4/5 34/3/6 35/5/7 3/6/8
f 3/6/9 35/5/10 36/7/11 4/8/12
f 4/8/13 36/7/14 37/9/15 5/10/16
f 5/10/17 37/9/18 38/11/19 6/12/20
f 6/12/21 38/11/22 39/13/23 7/14/24
f 7/14/25 39/13/26 40/15/27 8/16/28
f 8/16/29 40/15/30 41/17/31 9/18/32
f 9/19/33 41/20/34 42/21/35 10/22/36
f 10/22/37 42/21/38 43/23/39 11/24/40
f 11/24/41 43/23/42 44/25/43 12/26/44
f 12/26/45 44/25/46 45/27/47 13/28/48
f 13/28/49 45/27/50 46/29/51 14/30/52
f 14/30/53 46/29/54 47/31/55 15/32/56
f 15/32/57 47/31/58 48/33/59 16/34/60
f 16/34/61 48/33/62 49/35/63 17/36/64
f 17/36/65 49/35/66 50/37/67 18/38/68
f 18/38/69 50/37/70 51/39/71 19/40/72
f 19/40/73 51/39/74 52/41/75 20/42/76
f 20/42/77 52/41/78 53/43/79 21/44/80
f 21/44/81 53/43/82 54/45/83 22/46/84
f 22/46/85 54/45/86 55/47/87 23/48/88
f 23/48/89 55/47/90 56/49/91 24/50/92
f 24/50/93 56/49/94 57/51/95 25/52/96
f 25/52/97 57/51/98 58/53/99 26/54/100
f 26/54/101 58/53/102 59/55/103 27/56/104
f 27/56/105 59/55/106 60/57/107 28/58/108
f 28/58/109 60/57/110 61/59/111 29/60/112
f 29/60/113 61/59/114 62/61/115 30/62/116
f 30/62/117 62/61/118 63/63/119 31/64/120
f 31/64/121 63/63/122 64/65/123 32/66/124
f 32/66/125 64/65/126 33/2/127 1/1/128
